<svg id="Layer_1" data-name="Layer 1" xmlns="http://www.w3.org/2000/svg" width="402" height="33" viewBox="0 0 402 33"><defs><style>.cls-1{isolation:isolate;}.cls-2{fill:#001e6d;}.cls-3{fill:#009dd6;}</style></defs><g id="Recommendations-Carousel"><g id="Recommendations-Carousel_Template_Text-Only_DT-T" data-name="Recommendations-Carousel/Template/Text-Only/DT-T"><g id="Text-Only"><g id="We-Think-You_ll-Like" data-name="We-Think-You’ll-Like" class="cls-1"><g class="cls-1"><path class="cls-2" d="M23,7.08h4.18L20.89,26H17.68l-4-12.15L9.77,26H6.53L.22,7.08H4.48L8.23,19.25,12.15,7.08h3.21l3.91,12.17Z"/><path class="cls-2" d="M39.07,20.28H29.54A3.18,3.18,0,0,0,32.94,23a3.43,3.43,0,0,0,2.89-1.35l3,1.81c-1,1.75-3.19,2.78-5.94,2.78a6.88,6.88,0,0,1-7-7,6.77,6.77,0,0,1,6.89-6.83,6.28,6.28,0,0,1,6.39,6.31A9.81,9.81,0,0,1,39.07,20.28Zm-3.7-2.43a2.74,2.74,0,0,0-2.78-2.3,2.87,2.87,0,0,0-3,2.3Z"/><path class="cls-2" d="M60.85,10.94H55.32V26h-4V10.94H45.82V7.11h15Z"/><path class="cls-2" d="M75.62,18.5V26h-3.8V19a2.63,2.63,0,1,0-5.24,0v7H62.77V7.11h3.81v7.36a4.2,4.2,0,0,1,3.59-2C73.57,12.48,75.62,14.74,75.62,18.5Z"/><path class="cls-2" d="M82.51,8.62a2.32,2.32,0,1,1-2.32-2.3A2.33,2.33,0,0,1,82.51,8.62ZM78.3,12.75h3.81V26H78.3Z"/><path class="cls-2" d="M97.65,18.5V26h-3.8V19a2.63,2.63,0,1,0-5.24,0v7h-3.8V12.75h3.8v1.72a4.2,4.2,0,0,1,3.59-2C95.6,12.48,97.65,14.74,97.65,18.5Z"/><path class="cls-2" d="M113.83,26h-4.89l-4.8-5.94V26h-3.81V7.11h3.81V18.23l4.59-5.48h4.67l-5.51,6.39Z"/><path class="cls-2" d="M119.74,7.11h4.89L128.81,14,133,7.11h4.67L130.78,18v8h-4V18Z"/><path class="cls-2" d="M148.55,19.39a6.89,6.89,0,0,1-13.77,0,6.89,6.89,0,1,1,13.77,0Zm-10,0a3.16,3.16,0,1,0,6.31,0,3.16,3.16,0,1,0-6.31,0Z"/><path class="cls-2" d="M159.73,12.75h3.8V26h-3.8V24.25a4.09,4.09,0,0,1-3.59,2c-3.4,0-5.45-2.29-5.45-6.05V12.75h3.8v7a2.63,2.63,0,1,0,5.24,0Z"/><path class="cls-2" d="M169.26,8.91l-2,3.92H165.1l1.52-3.89a2.26,2.26,0,1,1,3.32-2A4.84,4.84,0,0,1,169.26,8.91Z"/><path class="cls-2" d="M175.36,7.11V26h-3.8V7.11Z"/><path class="cls-2" d="M181.87,7.11V26h-3.81V7.11Z"/><path class="cls-2" d="M190.16,7.11h4V22.17h8.67V26H190.16Z"/><path class="cls-2" d="M209.06,8.62a2.32,2.32,0,1,1-2.32-2.3A2.33,2.33,0,0,1,209.06,8.62Zm-4.21,4.13h3.8V26h-3.8Z"/><path class="cls-2" d="M225.07,26h-4.89l-4.8-5.94V26h-3.81V7.11h3.81V18.23L220,12.75h4.67l-5.5,6.39Z"/><path class="cls-2" d="M238,20.28h-9.53A3.19,3.19,0,0,0,231.85,23a3.41,3.41,0,0,0,2.88-1.35l3,1.81c-1,1.75-3.18,2.78-5.94,2.78a6.88,6.88,0,0,1-7-7,6.76,6.76,0,0,1,6.88-6.83,6.29,6.29,0,0,1,6.4,6.31A9.88,9.88,0,0,1,238,20.28Zm-3.69-2.43a2.75,2.75,0,0,0-2.79-2.3,2.86,2.86,0,0,0-3,2.3Z"/></g><g class="cls-1"><path class="cls-3" d="M261.14,10.94h-5.53V26h-4V10.94h-5.5V7.11h15Z"/><path class="cls-3" d="M275.37,18.5V26h-3.81V19a2.63,2.63,0,1,0-5.23,0v7h-3.81V7.11h3.81v7.36a4.19,4.19,0,0,1,3.59-2C273.32,12.48,275.37,14.74,275.37,18.5Z"/><path class="cls-3" d="M290.65,20.28h-9.53A3.19,3.19,0,0,0,284.53,23a3.43,3.43,0,0,0,2.88-1.35l3,1.81c-1,1.75-3.18,2.78-5.94,2.78a6.88,6.88,0,0,1-7-7,6.76,6.76,0,0,1,6.88-6.83,6.29,6.29,0,0,1,6.4,6.31A9.88,9.88,0,0,1,290.65,20.28ZM287,17.85a2.73,2.73,0,0,0-2.78-2.3,2.86,2.86,0,0,0-3,2.3Z"/><path class="cls-3" d="M291.68,24.6,292.82,22a7.59,7.59,0,0,0,4.48,1.4c1.18,0,1.94-.45,1.94-1.07,0-2-7.15-.52-7.21-5.4,0-2.49,2.19-4.4,5.32-4.4a8.19,8.19,0,0,1,5,1.51l-1.08,2.75a7.44,7.44,0,0,0-4.13-1.37c-1,0-1.62.45-1.62,1.05,0,1.91,7.21.86,7.29,5.61,0,2.46-2.16,4.24-5.24,4.24A10.2,10.2,0,0,1,291.68,24.6Z"/><path class="cls-3" d="M317.35,20.28h-9.52a3.18,3.18,0,0,0,3.4,2.75,3.43,3.43,0,0,0,2.89-1.35l3,1.81c-1,1.75-3.18,2.78-5.93,2.78a6.88,6.88,0,0,1-7-7,6.77,6.77,0,0,1,6.89-6.83,6.28,6.28,0,0,1,6.39,6.31A8.73,8.73,0,0,1,317.35,20.28Zm-3.69-2.43a2.75,2.75,0,0,0-2.78-2.3,2.87,2.87,0,0,0-3,2.3Z"/><path class="cls-3" d="M325.19,7.11h4V26h-4Z"/><path class="cls-3" d="M340,25.84a4.77,4.77,0,0,1-1.95.38,5,5,0,0,1-5.29-5.4V16.36h-2.45V12.75h2.45V9.26h3.81v3.49h3.27v3.61h-3.27v4.27a2,2,0,0,0,2.05,2,4,4,0,0,0,1.19-.19Z"/><path class="cls-3" d="M354.15,20.28h-9.52A3.18,3.18,0,0,0,348,23a3.44,3.44,0,0,0,2.89-1.35l3,1.81c-1,1.75-3.18,2.78-5.93,2.78a6.88,6.88,0,0,1-7-7,6.77,6.77,0,0,1,6.89-6.83,6.28,6.28,0,0,1,6.39,6.31A8.73,8.73,0,0,1,354.15,20.28Zm-3.69-2.43a2.75,2.75,0,0,0-2.78-2.3,2.87,2.87,0,0,0-3,2.3Z"/><path class="cls-3" d="M377.16,17.77V26h-3.84V18.66a2.25,2.25,0,0,0-2.26-2.54,2.34,2.34,0,0,0-2.41,2.54V26h-3.8V18.66a2.26,2.26,0,0,0-2.3-2.54,2.29,2.29,0,0,0-2.34,2.54V26H356.4V12.75h3.81v1.59A4.43,4.43,0,0,1,364,12.48a3.93,3.93,0,0,1,3.76,1.94,4.92,4.92,0,0,1,4-1.94A5.09,5.09,0,0,1,377.16,17.77Z"/><path class="cls-3" d="M379.13,24.6,380.27,22a7.59,7.59,0,0,0,4.48,1.4c1.19,0,1.94-.45,1.94-1.07,0-2-7.15-.52-7.21-5.4,0-2.49,2.19-4.4,5.32-4.4A8.19,8.19,0,0,1,389.85,14l-1.08,2.75a7.44,7.44,0,0,0-4.13-1.37c-1,0-1.62.45-1.62,1.05,0,1.91,7.21.86,7.29,5.61,0,2.46-2.16,4.24-5.24,4.24A10.22,10.22,0,0,1,379.13,24.6Z"/></g></g></g></g></g></svg>